<svg xmlns="http://www.w3.org/2000/svg" width="960" height="960" viewBox="0 0 960 960"><g font-family="DejaVu Sans Mono, monospace" font-size="12" text-anchor="middle"><text x="10" y="877" fill="#1e90ff" fill-opacity="0.06">E</text><text x="10" y="894" fill="#1e90ff" fill-opacity="0.07">:</text><text x="10" y="911" fill="#1e90ff" fill-opacity="0.09">&gt;</text><text x="10" y="928" fill="#1e90ff" fill-opacity="0.10">6</text><text x="10" y="945" fill="#1e90ff" fill-opacity="0.12">5</text><text x="10" y="2" fill="#1e90ff" fill-opacity="0.13">:</text><text x="10" y="19" fill="#1e90ff" fill-opacity="0.14">F</text><text x="10" y="36" fill="#1e90ff" fill-opacity="0.16">=</text><text x="10" y="53" fill="#1e90ff" fill-opacity="0.17">/</text><text x="10" y="70" fill="#1e90ff" fill-opacity="0.19">5</text><text x="10" y="87" fill="#1e90ff" fill-opacity="0.20">3</text><text x="10" y="104" fill="#1e90ff" fill-opacity="0.21">E</text><text x="10" y="121" fill="#1e90ff" fill-opacity="0.23">9</text><text x="10" y="138" fill="#1e90ff" fill-opacity="0.24">4</text><text x="10" y="155" fill="#1e90ff" fill-opacity="0.26">2</text><text x="10" y="172" fill="#1e90ff" fill-opacity="0.27">&lt;</text><text x="10" y="189" fill="#1e90ff" fill-opacity="0.28">*</text><text x="10" y="206" fill="#1e90ff" fill-opacity="0.30">=</text><text x="10" y="223" fill="#1e90ff" fill-opacity="0.31">1</text><text x="10" y="240" fill="#9be8ff" fill-opacity="0.60">/</text><text x="10" y="405" fill="#1e90ff" fill-opacity="0.06">=</text><text x="10" y="422" fill="#1e90ff" fill-opacity="0.07">/</text><text x="10" y="439" fill="#1e90ff" fill-opacity="0.09">=</text><text x="10" y="456" fill="#1e90ff" fill-opacity="0.10">5</text><text x="10" y="473" fill="#1e90ff" fill-opacity="0.12">/</text><text x="10" y="490" fill="#1e90ff" fill-opacity="0.13">0</text><text x="10" y="507" fill="#1e90ff" fill-opacity="0.14">:</text><text x="10" y="524" fill="#1e90ff" fill-opacity="0.16">2</text><text x="10" y="541" fill="#1e90ff" fill-opacity="0.17">1</text><text x="10" y="558" fill="#1e90ff" fill-opacity="0.19">1</text><text x="10" y="575" fill="#1e90ff" fill-opacity="0.20">6</text><text x="10" y="592" fill="#1e90ff" fill-opacity="0.21">7</text><text x="10" y="609" fill="#1e90ff" fill-opacity="0.23">/</text><text x="10" y="626" fill="#1e90ff" fill-opacity="0.24">0</text><text x="10" y="643" fill="#1e90ff" fill-opacity="0.26">E</text><text x="10" y="660" fill="#1e90ff" fill-opacity="0.27">A</text><text x="10" y="677" fill="#1e90ff" fill-opacity="0.28">E</text><text x="10" y="694" fill="#1e90ff" fill-opacity="0.30">&gt;</text><text x="10" y="711" fill="#1e90ff" fill-opacity="0.31">6</text><text x="10" y="728" fill="#9be8ff" fill-opacity="0.60">:</text><text x="110" y="564" fill="#1e90ff" fill-opacity="0.06">*</text><text x="110" y="581" fill="#1e90ff" fill-opacity="0.10">8</text><text x="110" y="598" fill="#1e90ff" fill-opacity="0.13">A</text><text x="110" y="615" fill="#1e90ff" fill-opacity="0.17">7</text><text x="110" y="632" fill="#1e90ff" fill-opacity="0.20">:</text><text x="110" y="649" fill="#1e90ff" fill-opacity="0.24">9</text><text x="110" y="666" fill="#1e90ff" fill-opacity="0.27">0</text><text x="110" y="683" fill="#9be8ff" fill-opacity="0.60">2</text><text x="130" y="410" fill="#1e90ff" fill-opacity="0.06">9</text><text x="130" y="427" fill="#1e90ff" fill-opacity="0.09">C</text><text x="130" y="444" fill="#1e90ff" fill-opacity="0.12">2</text><text x="130" y="461" fill="#1e90ff" fill-opacity="0.15">0</text><text x="130" y="478" fill="#1e90ff" fill-opacity="0.18">+</text><text x="130" y="495" fill="#1e90ff" fill-opacity="0.22">0</text><text x="130" y="512" fill="#1e90ff" fill-opacity="0.25">6</text><text x="130" y="529" fill="#1e90ff" fill-opacity="0.28">6</text><text x="130" y="546" fill="#9be8ff" fill-opacity="0.60">1</text><text x="150" y="406" fill="#1e90ff" fill-opacity="0.06">2</text><text x="150" y="423" fill="#1e90ff" fill-opacity="0.07">&gt;</text><text x="150" y="440" fill="#1e90ff" fill-opacity="0.09">=</text><text x="150" y="457" fill="#1e90ff" fill-opacity="0.10">6</text><text x="150" y="474" fill="#1e90ff" fill-opacity="0.12">+</text><text x="150" y="491" fill="#1e90ff" fill-opacity="0.13">8</text><text x="150" y="508" fill="#1e90ff" fill-opacity="0.15">A</text><text x="150" y="525" fill="#1e90ff" fill-opacity="0.16">2</text><text x="150" y="542" fill="#1e90ff" fill-opacity="0.18">9</text><text x="150" y="559" fill="#1e90ff" fill-opacity="0.19">A</text><text x="150" y="576" fill="#1e90ff" fill-opacity="0.21">0</text><text x="150" y="593" fill="#1e90ff" fill-opacity="0.22">D</text><text x="150" y="610" fill="#1e90ff" fill-opacity="0.24">3</text><text x="150" y="627" fill="#1e90ff" fill-opacity="0.25">4</text><text x="150" y="644" fill="#1e90ff" fill-opacity="0.27">7</text><text x="150" y="661" fill="#1e90ff" fill-opacity="0.28">*</text><text x="150" y="678" fill="#1e90ff" fill-opacity="0.30">3</text><text x="150" y="695" fill="#1e90ff" fill-opacity="0.31">0</text><text x="150" y="712" fill="#9be8ff" fill-opacity="0.60">1</text><text x="150" y="476" fill="#1e90ff" fill-opacity="0.06">5</text><text x="150" y="493" fill="#1e90ff" fill-opacity="0.07">+</text><text x="150" y="510" fill="#1e90ff" fill-opacity="0.09">&lt;</text><text x="150" y="527" fill="#1e90ff" fill-opacity="0.10">6</text><text x="150" y="544" fill="#1e90ff" fill-opacity="0.11">E</text><text x="150" y="561" fill="#1e90ff" fill-opacity="0.13">:</text><text x="150" y="578" fill="#1e90ff" fill-opacity="0.14">6</text><text x="150" y="595" fill="#1e90ff" fill-opacity="0.15">4</text><text x="150" y="612" fill="#1e90ff" fill-opacity="0.17">D</text><text x="150" y="629" fill="#1e90ff" fill-opacity="0.18">=</text><text x="150" y="646" fill="#1e90ff" fill-opacity="0.19">C</text><text x="150" y="663" fill="#1e90ff" fill-opacity="0.21">3</text><text x="150" y="680" fill="#1e90ff" fill-opacity="0.22">C</text><text x="150" y="697" fill="#1e90ff" fill-opacity="0.23">D</text><text x="150" y="714" fill="#1e90ff" fill-opacity="0.25">6</text><text x="150" y="731" fill="#1e90ff" fill-opacity="0.26">0</text><text x="150" y="748" fill="#1e90ff" fill-opacity="0.27">8</text><text x="150" y="765" fill="#1e90ff" fill-opacity="0.29">&gt;</text><text x="150" y="782" fill="#1e90ff" fill-opacity="0.30">9</text><text x="150" y="799" fill="#1e90ff" fill-opacity="0.31">0</text><text x="150" y="816" fill="#9be8ff" fill-opacity="0.60">6</text><text x="190" y="657" fill="#1e90ff" fill-opacity="0.06">1</text><text x="190" y="674" fill="#1e90ff" fill-opacity="0.09">4</text><text x="190" y="691" fill="#1e90ff" fill-opacity="0.12">6</text><text x="190" y="708" fill="#1e90ff" fill-opacity="0.15">E</text><text x="190" y="725" fill="#1e90ff" fill-opacity="0.18">8</text><text x="190" y="742" fill="#1e90ff" fill-opacity="0.22">0</text><text x="190" y="759" fill="#1e90ff" fill-opacity="0.25">/</text><text x="190" y="776" fill="#1e90ff" fill-opacity="0.28">A</text><text x="190" y="793" fill="#9be8ff" fill-opacity="0.60">9</text><text x="190" y="395" fill="#1e90ff" fill-opacity="0.06">2</text><text x="190" y="412" fill="#1e90ff" fill-opacity="0.10">2</text><text x="190" y="429" fill="#1e90ff" fill-opacity="0.13">6</text><text x="190" y="446" fill="#1e90ff" fill-opacity="0.17">&gt;</text><text x="190" y="463" fill="#1e90ff" fill-opacity="0.20">=</text><text x="190" y="480" fill="#1e90ff" fill-opacity="0.24">7</text><text x="190" y="497" fill="#1e90ff" fill-opacity="0.27">0</text><text x="190" y="514" fill="#9be8ff" fill-opacity="0.60">/</text><text x="230" y="601" fill="#1e90ff" fill-opacity="0.06">&gt;</text><text x="230" y="618" fill="#1e90ff" fill-opacity="0.07">4</text><text x="230" y="635" fill="#1e90ff" fill-opacity="0.09">C</text><text x="230" y="652" fill="#1e90ff" fill-opacity="0.10">5</text><text x="230" y="669" fill="#1e90ff" fill-opacity="0.11">=</text><text x="230" y="686" fill="#1e90ff" fill-opacity="0.13">4</text><text x="230" y="703" fill="#1e90ff" fill-opacity="0.14">9</text><text x="230" y="720" fill="#1e90ff" fill-opacity="0.15">7</text><text x="230" y="737" fill="#1e90ff" fill-opacity="0.17">/</text><text x="230" y="754" fill="#1e90ff" fill-opacity="0.18">7</text><text x="230" y="771" fill="#1e90ff" fill-opacity="0.19">6</text><text x="230" y="788" fill="#1e90ff" fill-opacity="0.21">5</text><text x="230" y="805" fill="#1e90ff" fill-opacity="0.22">=</text><text x="230" y="822" fill="#1e90ff" fill-opacity="0.23">&lt;</text><text x="230" y="839" fill="#1e90ff" fill-opacity="0.25">6</text><text x="230" y="856" fill="#1e90ff" fill-opacity="0.26">+</text><text x="230" y="873" fill="#1e90ff" fill-opacity="0.27">C</text><text x="230" y="890" fill="#1e90ff" fill-opacity="0.29">F</text><text x="230" y="907" fill="#1e90ff" fill-opacity="0.30">/</text><text x="230" y="924" fill="#1e90ff" fill-opacity="0.31">2</text><text x="230" y="941" fill="#9be8ff" fill-opacity="0.60">D</text><text x="290" y="244" fill="#1e90ff" fill-opacity="0.06">8</text><text x="290" y="261" fill="#1e90ff" fill-opacity="0.08">D</text><text x="290" y="278" fill="#1e90ff" fill-opacity="0.09">/</text><text x="290" y="295" fill="#1e90ff" fill-opacity="0.11">F</text><text x="290" y="312" fill="#1e90ff" fill-opacity="0.12">9</text><text x="290" y="329" fill="#1e90ff" fill-opacity="0.14">:</text><text x="290" y="346" fill="#1e90ff" fill-opacity="0.15">5</text><text x="290" y="363" fill="#1e90ff" fill-opacity="0.17">2</text><text x="290" y="380" fill="#1e90ff" fill-opacity="0.18">4</text><text x="290" y="397" fill="#1e90ff" fill-opacity="0.20">7</text><text x="290" y="414" fill="#1e90ff" fill-opacity="0.22">F</text><text x="290" y="431" fill="#1e90ff" fill-opacity="0.23">&lt;</text><text x="290" y="448" fill="#1e90ff" fill-opacity="0.25">=</text><text x="290" y="465" fill="#1e90ff" fill-opacity="0.26">/</text><text x="290" y="482" fill="#1e90ff" fill-opacity="0.28">/</text><text x="290" y="499" fill="#1e90ff" fill-opacity="0.29">2</text><text x="290" y="516" fill="#1e90ff" fill-opacity="0.31">8</text><text x="290" y="533" fill="#9be8ff" fill-opacity="0.60">6</text><text x="310" y="766" fill="#1e90ff" fill-opacity="0.06">2</text><text x="310" y="783" fill="#1e90ff" fill-opacity="0.11">8</text><text x="310" y="800" fill="#1e90ff" fill-opacity="0.15">D</text><text x="310" y="817" fill="#1e90ff" fill-opacity="0.20">E</text><text x="310" y="834" fill="#1e90ff" fill-opacity="0.25">7</text><text x="310" y="851" fill="#9be8ff" fill-opacity="0.60">1</text><text x="370" y="94" fill="#1e90ff" fill-opacity="0.06">4</text><text x="370" y="111" fill="#1e90ff" fill-opacity="0.08">E</text><text x="370" y="128" fill="#1e90ff" fill-opacity="0.09">A</text><text x="370" y="145" fill="#1e90ff" fill-opacity="0.11">+</text><text x="370" y="162" fill="#1e90ff" fill-opacity="0.13">*</text><text x="370" y="179" fill="#1e90ff" fill-opacity="0.14">:</text><text x="370" y="196" fill="#1e90ff" fill-opacity="0.16">&gt;</text><text x="370" y="213" fill="#1e90ff" fill-opacity="0.18">4</text><text x="370" y="230" fill="#1e90ff" fill-opacity="0.19">&gt;</text><text x="370" y="247" fill="#1e90ff" fill-opacity="0.21">1</text><text x="370" y="264" fill="#1e90ff" fill-opacity="0.22">0</text><text x="370" y="281" fill="#1e90ff" fill-opacity="0.24">F</text><text x="370" y="298" fill="#1e90ff" fill-opacity="0.26">B</text><text x="370" y="315" fill="#1e90ff" fill-opacity="0.27">*</text><text x="370" y="332" fill="#1e90ff" fill-opacity="0.29">9</text><text x="370" y="349" fill="#1e90ff" fill-opacity="0.31">1</text><text x="370" y="366" fill="#9be8ff" fill-opacity="0.60">0</text><text x="390" y="493" fill="#1e90ff" fill-opacity="0.06">9</text><text x="390" y="510" fill="#1e90ff" fill-opacity="0.10">A</text><text x="390" y="527" fill="#1e90ff" fill-opacity="0.13">4</text><text x="390" y="544" fill="#1e90ff" fill-opacity="0.17">2</text><text x="390" y="561" fill="#1e90ff" fill-opacity="0.20">2</text><text x="390" y="578" fill="#1e90ff" fill-opacity="0.24">E</text><text x="390" y="595" fill="#1e90ff" fill-opacity="0.27">&lt;</text><text x="390" y="612" fill="#9be8ff" fill-opacity="0.60">B</text><text x="410" y="754" fill="#1e90ff" fill-opacity="0.06">A</text><text x="410" y="771" fill="#1e90ff" fill-opacity="0.09">B</text><text x="410" y="788" fill="#1e90ff" fill-opacity="0.12">2</text><text x="410" y="805" fill="#1e90ff" fill-opacity="0.14">+</text><text x="410" y="822" fill="#1e90ff" fill-opacity="0.17">F</text><text x="410" y="839" fill="#1e90ff" fill-opacity="0.20">2</text><text x="410" y="856" fill="#1e90ff" fill-opacity="0.23">D</text><text x="410" y="873" fill="#1e90ff" fill-opacity="0.26">0</text><text x="410" y="890" fill="#1e90ff" fill-opacity="0.28">F</text><text x="410" y="907" fill="#9be8ff" fill-opacity="0.60">&gt;</text><text x="410" y="14" fill="#1e90ff" fill-opacity="0.06">C</text><text x="410" y="31" fill="#1e90ff" fill-opacity="0.08">&gt;</text><text x="410" y="48" fill="#1e90ff" fill-opacity="0.09">0</text><text x="410" y="65" fill="#1e90ff" fill-opacity="0.11">/</text><text x="410" y="82" fill="#1e90ff" fill-opacity="0.12">2</text><text x="410" y="99" fill="#1e90ff" fill-opacity="0.14">2</text><text x="410" y="116" fill="#1e90ff" fill-opacity="0.15">2</text><text x="410" y="133" fill="#1e90ff" fill-opacity="0.17">=</text><text x="410" y="150" fill="#1e90ff" fill-opacity="0.18">3</text><text x="410" y="167" fill="#1e90ff" fill-opacity="0.20">8</text><text x="410" y="184" fill="#1e90ff" fill-opacity="0.22">D</text><text x="410" y="201" fill="#1e90ff" fill-opacity="0.23">A</text><text x="410" y="218" fill="#1e90ff" fill-opacity="0.25">C</text><text x="410" y="235" fill="#1e90ff" fill-opacity="0.26">*</text><text x="410" y="252" fill="#1e90ff" fill-opacity="0.28">&gt;</text><text x="410" y="269" fill="#1e90ff" fill-opacity="0.29">E</text><text x="410" y="286" fill="#1e90ff" fill-opacity="0.31">E</text><text x="410" y="303" fill="#9be8ff" fill-opacity="0.60">E</text><text x="430" y="531" fill="#1e90ff" fill-opacity="0.06">0</text><text x="430" y="548" fill="#1e90ff" fill-opacity="0.07">9</text><text x="430" y="565" fill="#1e90ff" fill-opacity="0.09">/</text><text x="430" y="582" fill="#1e90ff" fill-opacity="0.10">2</text><text x="430" y="599" fill="#1e90ff" fill-opacity="0.11">F</text><text x="430" y="616" fill="#1e90ff" fill-opacity="0.12">0</text><text x="430" y="633" fill="#1e90ff" fill-opacity="0.14">7</text><text x="430" y="650" fill="#1e90ff" fill-opacity="0.15">*</text><text x="430" y="667" fill="#1e90ff" fill-opacity="0.16">3</text><text x="430" y="684" fill="#1e90ff" fill-opacity="0.17">F</text><text x="430" y="701" fill="#1e90ff" fill-opacity="0.19">/</text><text x="430" y="718" fill="#1e90ff" fill-opacity="0.20">+</text><text x="430" y="735" fill="#1e90ff" fill-opacity="0.21">F</text><text x="430" y="752" fill="#1e90ff" fill-opacity="0.23">8</text><text x="430" y="769" fill="#1e90ff" fill-opacity="0.24">0</text><text x="430" y="786" fill="#1e90ff" fill-opacity="0.25">B</text><text x="430" y="803" fill="#1e90ff" fill-opacity="0.26">9</text><text x="430" y="820" fill="#1e90ff" fill-opacity="0.28">4</text><text x="430" y="837" fill="#1e90ff" fill-opacity="0.29">+</text><text x="430" y="854" fill="#1e90ff" fill-opacity="0.30">/</text><text x="430" y="871" fill="#1e90ff" fill-opacity="0.31">6</text><text x="430" y="888" fill="#9be8ff" fill-opacity="0.60">:</text><text x="470" y="952" fill="#1e90ff" fill-opacity="0.06">F</text><text x="470" y="9" fill="#1e90ff" fill-opacity="0.07">7</text><text x="470" y="26" fill="#1e90ff" fill-opacity="0.09">A</text><text x="470" y="43" fill="#1e90ff" fill-opacity="0.10">C</text><text x="470" y="60" fill="#1e90ff" fill-opacity="0.12">+</text><text x="470" y="77" fill="#1e90ff" fill-opacity="0.13">8</text><text x="470" y="94" fill="#1e90ff" fill-opacity="0.14">6</text><text x="470" y="111" fill="#1e90ff" fill-opacity="0.16">=</text><text x="470" y="128" fill="#1e90ff" fill-opacity="0.17">D</text><text x="470" y="145" fill="#1e90ff" fill-opacity="0.19">6</text><text x="470" y="162" fill="#1e90ff" fill-opacity="0.20">6</text><text x="470" y="179" fill="#1e90ff" fill-opacity="0.21">C</text><text x="470" y="196" fill="#1e90ff" fill-opacity="0.23">7</text><text x="470" y="213" fill="#1e90ff" fill-opacity="0.24">&gt;</text><text x="470" y="230" fill="#1e90ff" fill-opacity="0.26">A</text><text x="470" y="247" fill="#1e90ff" fill-opacity="0.27">6</text><text x="470" y="264" fill="#1e90ff" fill-opacity="0.28">4</text><text x="470" y="281" fill="#1e90ff" fill-opacity="0.30">4</text><text x="470" y="298" fill="#1e90ff" fill-opacity="0.31">F</text><text x="470" y="315" fill="#9be8ff" fill-opacity="0.60">B</text><text x="470" y="857" fill="#1e90ff" fill-opacity="0.06">*</text><text x="470" y="874" fill="#1e90ff" fill-opacity="0.10">2</text><text x="470" y="891" fill="#1e90ff" fill-opacity="0.14">8</text><text x="470" y="908" fill="#1e90ff" fill-opacity="0.18">5</text><text x="470" y="925" fill="#1e90ff" fill-opacity="0.22">3</text><text x="470" y="942" fill="#1e90ff" fill-opacity="0.26">E</text><text x="470" y="959" fill="#9be8ff" fill-opacity="0.60">F</text><text x="530" y="532" fill="#1e90ff" fill-opacity="0.06">+</text><text x="530" y="549" fill="#1e90ff" fill-opacity="0.07">A</text><text x="530" y="566" fill="#1e90ff" fill-opacity="0.09">*</text><text x="530" y="583" fill="#1e90ff" fill-opacity="0.10">/</text><text x="530" y="600" fill="#1e90ff" fill-opacity="0.11">E</text><text x="530" y="617" fill="#1e90ff" fill-opacity="0.13">A</text><text x="530" y="634" fill="#1e90ff" fill-opacity="0.14">2</text><text x="530" y="651" fill="#1e90ff" fill-opacity="0.15">1</text><text x="530" y="668" fill="#1e90ff" fill-opacity="0.17">8</text><text x="530" y="685" fill="#1e90ff" fill-opacity="0.18">/</text><text x="530" y="702" fill="#1e90ff" fill-opacity="0.19">1</text><text x="530" y="719" fill="#1e90ff" fill-opacity="0.21">+</text><text x="530" y="736" fill="#1e90ff" fill-opacity="0.22">*</text><text x="530" y="753" fill="#1e90ff" fill-opacity="0.23">8</text><text x="530" y="770" fill="#1e90ff" fill-opacity="0.25">&gt;</text><text x="530" y="787" fill="#1e90ff" fill-opacity="0.26">B</text><text x="530" y="804" fill="#1e90ff" fill-opacity="0.27">9</text><text x="530" y="821" fill="#1e90ff" fill-opacity="0.29">=</text><text x="530" y="838" fill="#1e90ff" fill-opacity="0.30">&gt;</text><text x="530" y="855" fill="#1e90ff" fill-opacity="0.31">0</text><text x="530" y="872" fill="#9be8ff" fill-opacity="0.60">=</text><text x="530" y="139" fill="#1e90ff" fill-opacity="0.06">E</text><text x="530" y="156" fill="#1e90ff" fill-opacity="0.08">6</text><text x="530" y="173" fill="#1e90ff" fill-opacity="0.09">0</text><text x="530" y="190" fill="#1e90ff" fill-opacity="0.11">8</text><text x="530" y="207" fill="#1e90ff" fill-opacity="0.12">7</text><text x="530" y="224" fill="#1e90ff" fill-opacity="0.14">4</text><text x="530" y="241" fill="#1e90ff" fill-opacity="0.15">1</text><text x="530" y="258" fill="#1e90ff" fill-opacity="0.17">=</text><text x="530" y="275" fill="#1e90ff" fill-opacity="0.18">3</text><text x="530" y="292" fill="#1e90ff" fill-opacity="0.20">E</text><text x="530" y="309" fill="#1e90ff" fill-opacity="0.22">3</text><text x="530" y="326" fill="#1e90ff" fill-opacity="0.23">=</text><text x="530" y="343" fill="#1e90ff" fill-opacity="0.25">&lt;</text><text x="530" y="360" fill="#1e90ff" fill-opacity="0.26">=</text><text x="530" y="377" fill="#1e90ff" fill-opacity="0.28">=</text><text x="530" y="394" fill="#1e90ff" fill-opacity="0.29">B</text><text x="530" y="411" fill="#1e90ff" fill-opacity="0.31">2</text><text x="530" y="428" fill="#9be8ff" fill-opacity="0.60">+</text><text x="570" y="182" fill="#1e90ff" fill-opacity="0.06">F</text><text x="570" y="199" fill="#1e90ff" fill-opacity="0.11">&lt;</text><text x="570" y="216" fill="#1e90ff" fill-opacity="0.15">*</text><text x="570" y="233" fill="#1e90ff" fill-opacity="0.20">1</text><text x="570" y="250" fill="#1e90ff" fill-opacity="0.25">5</text><text x="570" y="267" fill="#9be8ff" fill-opacity="0.60">7</text><text x="630" y="512" fill="#1e90ff" fill-opacity="0.06">C</text><text x="630" y="529" fill="#1e90ff" fill-opacity="0.09">*</text><text x="630" y="546" fill="#1e90ff" fill-opacity="0.11">7</text><text x="630" y="563" fill="#1e90ff" fill-opacity="0.14">2</text><text x="630" y="580" fill="#1e90ff" fill-opacity="0.16">D</text><text x="630" y="597" fill="#1e90ff" fill-opacity="0.19">C</text><text x="630" y="614" fill="#1e90ff" fill-opacity="0.21">4</text><text x="630" y="631" fill="#1e90ff" fill-opacity="0.24">E</text><text x="630" y="648" fill="#1e90ff" fill-opacity="0.26">E</text><text x="630" y="665" fill="#1e90ff" fill-opacity="0.29">6</text><text x="630" y="682" fill="#9be8ff" fill-opacity="0.60">=</text><text x="630" y="908" fill="#1e90ff" fill-opacity="0.06">C</text><text x="630" y="925" fill="#1e90ff" fill-opacity="0.11">&lt;</text><text x="630" y="942" fill="#1e90ff" fill-opacity="0.15">&gt;</text><text x="630" y="959" fill="#1e90ff" fill-opacity="0.20">=</text><text x="630" y="16" fill="#1e90ff" fill-opacity="0.25">:</text><text x="630" y="33" fill="#9be8ff" fill-opacity="0.60">A</text><text x="650" y="209" fill="#1e90ff" fill-opacity="0.06">=</text><text x="650" y="226" fill="#1e90ff" fill-opacity="0.09">*</text><text x="650" y="243" fill="#1e90ff" fill-opacity="0.12">3</text><text x="650" y="260" fill="#1e90ff" fill-opacity="0.15">6</text><text x="650" y="277" fill="#1e90ff" fill-opacity="0.18">7</text><text x="650" y="294" fill="#1e90ff" fill-opacity="0.22">C</text><text x="650" y="311" fill="#1e90ff" fill-opacity="0.25">2</text><text x="650" y="328" fill="#1e90ff" fill-opacity="0.28">9</text><text x="650" y="345" fill="#9be8ff" fill-opacity="0.60">&lt;</text><text x="650" y="809" fill="#1e90ff" fill-opacity="0.06">8</text><text x="650" y="826" fill="#1e90ff" fill-opacity="0.08">*</text><text x="650" y="843" fill="#1e90ff" fill-opacity="0.10">0</text><text x="650" y="860" fill="#1e90ff" fill-opacity="0.11">B</text><text x="650" y="877" fill="#1e90ff" fill-opacity="0.13">:</text><text x="650" y="894" fill="#1e90ff" fill-opacity="0.15">2</text><text x="650" y="911" fill="#1e90ff" fill-opacity="0.17">1</text><text x="650" y="928" fill="#1e90ff" fill-opacity="0.18">E</text><text x="650" y="945" fill="#1e90ff" fill-opacity="0.20">A</text><text x="650" y="2" fill="#1e90ff" fill-opacity="0.22">&lt;</text><text x="650" y="19" fill="#1e90ff" fill-opacity="0.24">D</text><text x="650" y="36" fill="#1e90ff" fill-opacity="0.25">8</text><text x="650" y="53" fill="#1e90ff" fill-opacity="0.27">F</text><text x="650" y="70" fill="#1e90ff" fill-opacity="0.29">0</text><text x="650" y="87" fill="#1e90ff" fill-opacity="0.31">6</text><text x="650" y="104" fill="#9be8ff" fill-opacity="0.60">2</text><text x="670" y="177" fill="#1e90ff" fill-opacity="0.06">+</text><text x="670" y="194" fill="#1e90ff" fill-opacity="0.08">4</text><text x="670" y="211" fill="#1e90ff" fill-opacity="0.10">F</text><text x="670" y="228" fill="#1e90ff" fill-opacity="0.11">4</text><text x="670" y="245" fill="#1e90ff" fill-opacity="0.13">:</text><text x="670" y="262" fill="#1e90ff" fill-opacity="0.15">:</text><text x="670" y="279" fill="#1e90ff" fill-opacity="0.17">+</text><text x="670" y="296" fill="#1e90ff" fill-opacity="0.18">*</text><text x="670" y="313" fill="#1e90ff" fill-opacity="0.20">E</text><text x="670" y="330" fill="#1e90ff" fill-opacity="0.22">F</text><text x="670" y="347" fill="#1e90ff" fill-opacity="0.24">&gt;</text><text x="670" y="364" fill="#1e90ff" fill-opacity="0.25">*</text><text x="670" y="381" fill="#1e90ff" fill-opacity="0.27">2</text><text x="670" y="398" fill="#1e90ff" fill-opacity="0.29">7</text><text x="670" y="415" fill="#1e90ff" fill-opacity="0.31">E</text><text x="670" y="432" fill="#9be8ff" fill-opacity="0.60">:</text><text x="690" y="575" fill="#1e90ff" fill-opacity="0.06">:</text><text x="690" y="592" fill="#1e90ff" fill-opacity="0.09">:</text><text x="690" y="609" fill="#1e90ff" fill-opacity="0.11">&lt;</text><text x="690" y="626" fill="#1e90ff" fill-opacity="0.14">8</text><text x="690" y="643" fill="#1e90ff" fill-opacity="0.16">9</text><text x="690" y="660" fill="#1e90ff" fill-opacity="0.19">+</text><text x="690" y="677" fill="#1e90ff" fill-opacity="0.21">C</text><text x="690" y="694" fill="#1e90ff" fill-opacity="0.24">/</text><text x="690" y="711" fill="#1e90ff" fill-opacity="0.26">6</text><text x="690" y="728" fill="#1e90ff" fill-opacity="0.29">9</text><text x="690" y="745" fill="#9be8ff" fill-opacity="0.60">4</text><text x="690" y="557" fill="#1e90ff" fill-opacity="0.06">8</text><text x="690" y="574" fill="#1e90ff" fill-opacity="0.07">&gt;</text><text x="690" y="591" fill="#1e90ff" fill-opacity="0.09">F</text><text x="690" y="608" fill="#1e90ff" fill-opacity="0.10">6</text><text x="690" y="625" fill="#1e90ff" fill-opacity="0.11">D</text><text x="690" y="642" fill="#1e90ff" fill-opacity="0.12">&lt;</text><text x="690" y="659" fill="#1e90ff" fill-opacity="0.14">3</text><text x="690" y="676" fill="#1e90ff" fill-opacity="0.15">:</text><text x="690" y="693" fill="#1e90ff" fill-opacity="0.16">0</text><text x="690" y="710" fill="#1e90ff" fill-opacity="0.17">/</text><text x="690" y="727" fill="#1e90ff" fill-opacity="0.19">C</text><text x="690" y="744" fill="#1e90ff" fill-opacity="0.20">0</text><text x="690" y="761" fill="#1e90ff" fill-opacity="0.21">&lt;</text><text x="690" y="778" fill="#1e90ff" fill-opacity="0.23">1</text><text x="690" y="795" fill="#1e90ff" fill-opacity="0.24">:</text><text x="690" y="812" fill="#1e90ff" fill-opacity="0.25">C</text><text x="690" y="829" fill="#1e90ff" fill-opacity="0.26">&lt;</text><text x="690" y="846" fill="#1e90ff" fill-opacity="0.28">&gt;</text><text x="690" y="863" fill="#1e90ff" fill-opacity="0.29">3</text><text x="690" y="880" fill="#1e90ff" fill-opacity="0.30">F</text><text x="690" y="897" fill="#1e90ff" fill-opacity="0.31">2</text><text x="690" y="914" fill="#9be8ff" fill-opacity="0.60">*</text><text x="730" y="423" fill="#1e90ff" fill-opacity="0.06">8</text><text x="730" y="440" fill="#1e90ff" fill-opacity="0.08">7</text><text x="730" y="457" fill="#1e90ff" fill-opacity="0.09">F</text><text x="730" y="474" fill="#1e90ff" fill-opacity="0.11">F</text><text x="730" y="491" fill="#1e90ff" fill-opacity="0.12">4</text><text x="730" y="508" fill="#1e90ff" fill-opacity="0.14">A</text><text x="730" y="525" fill="#1e90ff" fill-opacity="0.15">D</text><text x="730" y="542" fill="#1e90ff" fill-opacity="0.17">F</text><text x="730" y="559" fill="#1e90ff" fill-opacity="0.18">:</text><text x="730" y="576" fill="#1e90ff" fill-opacity="0.20">A</text><text x="730" y="593" fill="#1e90ff" fill-opacity="0.22">3</text><text x="730" y="610" fill="#1e90ff" fill-opacity="0.23">6</text><text x="730" y="627" fill="#1e90ff" fill-opacity="0.25">D</text><text x="730" y="644" fill="#1e90ff" fill-opacity="0.26">/</text><text x="730" y="661" fill="#1e90ff" fill-opacity="0.28">0</text><text x="730" y="678" fill="#1e90ff" fill-opacity="0.29">8</text><text x="730" y="695" fill="#1e90ff" fill-opacity="0.31">4</text><text x="730" y="712" fill="#9be8ff" fill-opacity="0.60">*</text><text x="750" y="36" fill="#1e90ff" fill-opacity="0.06">4</text><text x="750" y="53" fill="#1e90ff" fill-opacity="0.08">7</text><text x="750" y="70" fill="#1e90ff" fill-opacity="0.11">0</text><text x="750" y="87" fill="#1e90ff" fill-opacity="0.13">+</text><text x="750" y="104" fill="#1e90ff" fill-opacity="0.15">9</text><text x="750" y="121" fill="#1e90ff" fill-opacity="0.18">A</text><text x="750" y="138" fill="#1e90ff" fill-opacity="0.20">B</text><text x="750" y="155" fill="#1e90ff" fill-opacity="0.22">7</text><text x="750" y="172" fill="#1e90ff" fill-opacity="0.25">/</text><text x="750" y="189" fill="#1e90ff" fill-opacity="0.27">F</text><text x="750" y="206" fill="#1e90ff" fill-opacity="0.29">3</text><text x="750" y="223" fill="#9be8ff" fill-opacity="0.60">F</text><text x="770" y="872" fill="#1e90ff" fill-opacity="0.06">/</text><text x="770" y="889" fill="#1e90ff" fill-opacity="0.07">8</text><text x="770" y="906" fill="#1e90ff" fill-opacity="0.09">*</text><text x="770" y="923" fill="#1e90ff" fill-opacity="0.10">6</text><text x="770" y="940" fill="#1e90ff" fill-opacity="0.11">*</text><text x="770" y="957" fill="#1e90ff" fill-opacity="0.12">:</text><text x="770" y="14" fill="#1e90ff" fill-opacity="0.14">D</text><text x="770" y="31" fill="#1e90ff" fill-opacity="0.15">0</text><text x="770" y="48" fill="#1e90ff" fill-opacity="0.16">C</text><text x="770" y="65" fill="#1e90ff" fill-opacity="0.17">=</text><text x="770" y="82" fill="#1e90ff" fill-opacity="0.19">D</text><text x="770" y="99" fill="#1e90ff" fill-opacity="0.20">:</text><text x="770" y="116" fill="#1e90ff" fill-opacity="0.21">/</text><text x="770" y="133" fill="#1e90ff" fill-opacity="0.23">5</text><text x="770" y="150" fill="#1e90ff" fill-opacity="0.24">&lt;</text><text x="770" y="167" fill="#1e90ff" fill-opacity="0.25">6</text><text x="770" y="184" fill="#1e90ff" fill-opacity="0.26">=</text><text x="770" y="201" fill="#1e90ff" fill-opacity="0.28">&lt;</text><text x="770" y="218" fill="#1e90ff" fill-opacity="0.29">=</text><text x="770" y="235" fill="#1e90ff" fill-opacity="0.30">6</text><text x="770" y="252" fill="#1e90ff" fill-opacity="0.31">:</text><text x="770" y="269" fill="#9be8ff" fill-opacity="0.60">6</text><text x="790" y="600" fill="#1e90ff" fill-opacity="0.06">7</text><text x="790" y="617" fill="#1e90ff" fill-opacity="0.09">=</text><text x="790" y="634" fill="#1e90ff" fill-opacity="0.12">B</text><text x="790" y="651" fill="#1e90ff" fill-opacity="0.14">5</text><text x="790" y="668" fill="#1e90ff" fill-opacity="0.17">A</text><text x="790" y="685" fill="#1e90ff" fill-opacity="0.20">/</text><text x="790" y="702" fill="#1e90ff" fill-opacity="0.23">A</text><text x="790" y="719" fill="#1e90ff" fill-opacity="0.26">6</text><text x="790" y="736" fill="#1e90ff" fill-opacity="0.28">6</text><text x="790" y="753" fill="#9be8ff" fill-opacity="0.60">6</text><text x="790" y="908" fill="#1e90ff" fill-opacity="0.06">4</text><text x="790" y="925" fill="#1e90ff" fill-opacity="0.09">7</text><text x="790" y="942" fill="#1e90ff" fill-opacity="0.12">4</text><text x="790" y="959" fill="#1e90ff" fill-opacity="0.15">2</text><text x="790" y="16" fill="#1e90ff" fill-opacity="0.18">8</text><text x="790" y="33" fill="#1e90ff" fill-opacity="0.22">C</text><text x="790" y="50" fill="#1e90ff" fill-opacity="0.25">3</text><text x="790" y="67" fill="#1e90ff" fill-opacity="0.28">D</text><text x="790" y="84" fill="#9be8ff" fill-opacity="0.60">D</text><text x="810" y="129" fill="#1e90ff" fill-opacity="0.06">C</text><text x="810" y="146" fill="#1e90ff" fill-opacity="0.08">=</text><text x="810" y="163" fill="#1e90ff" fill-opacity="0.11">+</text><text x="810" y="180" fill="#1e90ff" fill-opacity="0.13">0</text><text x="810" y="197" fill="#1e90ff" fill-opacity="0.15">3</text><text x="810" y="214" fill="#1e90ff" fill-opacity="0.18">6</text><text x="810" y="231" fill="#1e90ff" fill-opacity="0.20">&gt;</text><text x="810" y="248" fill="#1e90ff" fill-opacity="0.22">+</text><text x="810" y="265" fill="#1e90ff" fill-opacity="0.25">B</text><text x="810" y="282" fill="#1e90ff" fill-opacity="0.27">B</text><text x="810" y="299" fill="#1e90ff" fill-opacity="0.29">3</text><text x="810" y="316" fill="#9be8ff" fill-opacity="0.60">*</text><text x="810" y="517" fill="#1e90ff" fill-opacity="0.06">:</text><text x="810" y="534" fill="#1e90ff" fill-opacity="0.08">+</text><text x="810" y="551" fill="#1e90ff" fill-opacity="0.10">6</text><text x="810" y="568" fill="#1e90ff" fill-opacity="0.11">2</text><text x="810" y="585" fill="#1e90ff" fill-opacity="0.13">F</text><text x="810" y="602" fill="#1e90ff" fill-opacity="0.15">3</text><text x="810" y="619" fill="#1e90ff" fill-opacity="0.17">0</text><text x="810" y="636" fill="#1e90ff" fill-opacity="0.18">1</text><text x="810" y="653" fill="#1e90ff" fill-opacity="0.20">&lt;</text><text x="810" y="670" fill="#1e90ff" fill-opacity="0.22">/</text><text x="810" y="687" fill="#1e90ff" fill-opacity="0.24">:</text><text x="810" y="704" fill="#1e90ff" fill-opacity="0.25">&gt;</text><text x="810" y="721" fill="#1e90ff" fill-opacity="0.27">F</text><text x="810" y="738" fill="#1e90ff" fill-opacity="0.29">4</text><text x="810" y="755" fill="#1e90ff" fill-opacity="0.31">6</text><text x="810" y="772" fill="#9be8ff" fill-opacity="0.60">5</text><text x="910" y="63" fill="#1e90ff" fill-opacity="0.06">+</text><text x="910" y="80" fill="#1e90ff" fill-opacity="0.09">E</text><text x="910" y="97" fill="#1e90ff" fill-opacity="0.12">2</text><text x="910" y="114" fill="#1e90ff" fill-opacity="0.14">3</text><text x="910" y="131" fill="#1e90ff" fill-opacity="0.17">A</text><text x="910" y="148" fill="#1e90ff" fill-opacity="0.20">C</text><text x="910" y="165" fill="#1e90ff" fill-opacity="0.23">E</text><text x="910" y="182" fill="#1e90ff" fill-opacity="0.26">D</text><text x="910" y="199" fill="#1e90ff" fill-opacity="0.28">:</text><text x="910" y="216" fill="#9be8ff" fill-opacity="0.60">B</text><text x="910" y="440" fill="#1e90ff" fill-opacity="0.06">/</text><text x="910" y="457" fill="#1e90ff" fill-opacity="0.08">B</text><text x="910" y="474" fill="#1e90ff" fill-opacity="0.11">0</text><text x="910" y="491" fill="#1e90ff" fill-opacity="0.13">=</text><text x="910" y="508" fill="#1e90ff" fill-opacity="0.15">*</text><text x="910" y="525" fill="#1e90ff" fill-opacity="0.18">1</text><text x="910" y="542" fill="#1e90ff" fill-opacity="0.20">6</text><text x="910" y="559" fill="#1e90ff" fill-opacity="0.22">5</text><text x="910" y="576" fill="#1e90ff" fill-opacity="0.25">D</text><text x="910" y="593" fill="#1e90ff" fill-opacity="0.27">E</text><text x="910" y="610" fill="#1e90ff" fill-opacity="0.29">B</text><text x="910" y="627" fill="#9be8ff" fill-opacity="0.60">B</text><text x="930" y="619" fill="#1e90ff" fill-opacity="0.06">3</text><text x="930" y="636" fill="#1e90ff" fill-opacity="0.09">:</text><text x="930" y="653" fill="#1e90ff" fill-opacity="0.11">0</text><text x="930" y="670" fill="#1e90ff" fill-opacity="0.14">A</text><text x="930" y="687" fill="#1e90ff" fill-opacity="0.16">2</text><text x="930" y="704" fill="#1e90ff" fill-opacity="0.19">*</text><text x="930" y="721" fill="#1e90ff" fill-opacity="0.21">=</text><text x="930" y="738" fill="#1e90ff" fill-opacity="0.24">C</text><text x="930" y="755" fill="#1e90ff" fill-opacity="0.26">&gt;</text><text x="930" y="772" fill="#1e90ff" fill-opacity="0.29">/</text><text x="930" y="789" fill="#9be8ff" fill-opacity="0.60">6</text><text x="950" y="824" fill="#1e90ff" fill-opacity="0.06">8</text><text x="950" y="841" fill="#1e90ff" fill-opacity="0.08">3</text><text x="950" y="858" fill="#1e90ff" fill-opacity="0.10">5</text><text x="950" y="875" fill="#1e90ff" fill-opacity="0.12">C</text><text x="950" y="892" fill="#1e90ff" fill-opacity="0.14">4</text><text x="950" y="909" fill="#1e90ff" fill-opacity="0.16">A</text><text x="950" y="926" fill="#1e90ff" fill-opacity="0.18">&lt;</text><text x="950" y="943" fill="#1e90ff" fill-opacity="0.20">*</text><text x="950" y="0" fill="#1e90ff" fill-opacity="0.22">B</text><text x="950" y="17" fill="#1e90ff" fill-opacity="0.24">D</text><text x="950" y="34" fill="#1e90ff" fill-opacity="0.26">5</text><text x="950" y="51" fill="#1e90ff" fill-opacity="0.28">C</text><text x="950" y="68" fill="#1e90ff" fill-opacity="0.30">6</text><text x="950" y="85" fill="#9be8ff" fill-opacity="0.60">5</text></g></svg>